# xmcd
#
# Track frame offsets:
#	150
#	19130
#	41363
#	62736
#	82815
#	100426
#	118346
#	135207
#	156127
#	168382
#	185177
#	204972
#	224433
#	244503
#	265554
#	282972
#
# Disc length: 4145 seconds
#
# Revision: 2
# Processed by: cddbd v1.5.2PL0 Copyright (c) Steve Scherf et al.
# Submitted via: EZCDAudioConverter 7.1.7.1
#
DISCID=da102f10
DTITLE=群星 - 夜迷情 Dts-Es5.1
DYEAR=2010
DGENRE=
TTITLE0=错过的情人
TTITLE1=听着情歌流眼泪
TTITLE2=我把爱情给丢了
TTITLE3=赶路的月光
TTITLE4=且听风吟
TTITLE5=你的承诺
TTITLE6=心恋
TTITLE7=兰亭序
TTITLE8=最初的起点
TTITLE9=泪光雨
TTITLE10=爱情转移
TTITLE11=情歌
TTITLE12=姑娘我爱你
TTITLE13=一路上有你
TTITLE14=情难枕
TTITLE15=恋千年
EXTD=
EXTT0=
EXTT1=
EXTT2=
EXTT3=
EXTT4=
EXTT5=
EXTT6=
EXTT7=
EXTT8=
EXTT9=
EXTT10=
EXTT11=
EXTT12=
EXTT13=
EXTT14=
EXTT15=
PLAYORDER=
